STARTFONT 2.1
FONT --Robotron1715-Medium-R-Normal--16-160-72-72-C-80-ISO10646-1
SIZE 16 72 72
FONTBOUNDINGBOX 8 16 0 -7
STARTPROPERTIES 18
FOUNDRY ""
FAMILY_NAME "Robotron1715"
WEIGHT_NAME "Medium"
SLANT "R"
SETWIDTH_NAME "Normal"
ADD_STYLE_NAME ""
PIXEL_SIZE 16
POINT_SIZE 160
RESOLUTION_X 72
RESOLUTION_Y 72
SPACING "C"
AVERAGE_WIDTH 80
CHARSET_REGISTRY "ISO10646"
CHARSET_ENCODING "1"
MIN_SPACE 8
FONT_ASCENT 12
FONT_DESCENT 4
DEFAULT_CHAR 0
ENDPROPERTIES
CHARS 128
STARTCHAR U+0000
ENCODING 0
SWIDTH 500 0
DWIDTH 8 0
BBX 8 16 0 -7
BITMAP
00
00
00
00
00
10
00
00
00
00
00
00
00
00
00
00
ENDCHAR
STARTCHAR U+0001
ENCODING 1
SWIDTH 500 0
DWIDTH 8 0
BBX 8 16 0 -7
BITMAP
00
00
00
00
00
10
00
00
00
00
00
00
00
00
00
00
ENDCHAR
STARTCHAR U+0002
ENCODING 2
SWIDTH 500 0
DWIDTH 8 0
BBX 8 16 0 -7
BITMAP
00
00
00
00
00
10
00
00
00
00
00
00
00
00
00
00
ENDCHAR
STARTCHAR U+0003
ENCODING 3
SWIDTH 500 0
DWIDTH 8 0
BBX 8 16 0 -7
BITMAP
00
00
00
00
00
10
00
00
00
00
00
00
00
00
00
00
ENDCHAR
STARTCHAR U+0004
ENCODING 4
SWIDTH 500 0
DWIDTH 8 0
BBX 8 16 0 -7
BITMAP
00
00
00
00
00
10
00
00
00
00
00
00
00
00
00
00
ENDCHAR
STARTCHAR U+0005
ENCODING 5
SWIDTH 500 0
DWIDTH 8 0
BBX 8 16 0 -7
BITMAP
00
00
00
00
00
10
00
00
00
00
00
00
00
00
00
00
ENDCHAR
STARTCHAR U+0006
ENCODING 6
SWIDTH 500 0
DWIDTH 8 0
BBX 8 16 0 -7
BITMAP
00
00
00
00
00
10
00
00
00
00
00
00
00
00
00
00
ENDCHAR
STARTCHAR U+0007
ENCODING 7
SWIDTH 500 0
DWIDTH 8 0
BBX 8 16 0 -7
BITMAP
00
00
00
00
00
10
00
00
00
00
00
00
00
00
00
00
ENDCHAR
STARTCHAR U+0008
ENCODING 8
SWIDTH 500 0
DWIDTH 8 0
BBX 8 16 0 -7
BITMAP
00
00
00
00
00
10
00
00
00
00
00
00
00
00
00
00
ENDCHAR
STARTCHAR U+0009
ENCODING 9
SWIDTH 500 0
DWIDTH 8 0
BBX 8 16 0 -7
BITMAP
00
00
00
00
00
10
00
00
00
00
00
00
00
00
00
00
ENDCHAR
STARTCHAR U+000a
ENCODING 10
SWIDTH 500 0
DWIDTH 8 0
BBX 8 16 0 -7
BITMAP
00
00
00
00
00
10
00
00
00
00
00
00
00
00
00
00
ENDCHAR
STARTCHAR U+000b
ENCODING 11
SWIDTH 500 0
DWIDTH 8 0
BBX 8 16 0 -7
BITMAP
00
00
00
00
00
10
00
00
00
00
00
00
00
00
00
00
ENDCHAR
STARTCHAR U+000c
ENCODING 12
SWIDTH 500 0
DWIDTH 8 0
BBX 8 16 0 -7
BITMAP
00
00
00
00
00
10
00
00
00
00
00
00
00
00
00
00
ENDCHAR
STARTCHAR U+000d
ENCODING 13
SWIDTH 500 0
DWIDTH 8 0
BBX 8 16 0 -7
BITMAP
00
00
00
00
00
10
00
00
00
00
00
00
00
00
00
00
ENDCHAR
STARTCHAR U+000e
ENCODING 14
SWIDTH 500 0
DWIDTH 8 0
BBX 8 16 0 -7
BITMAP
00
00
00
00
00
10
00
00
00
00
00
00
00
00
00
00
ENDCHAR
STARTCHAR U+000f
ENCODING 15
SWIDTH 500 0
DWIDTH 8 0
BBX 8 16 0 -7
BITMAP
00
00
00
00
00
10
00
00
00
00
00
00
00
00
00
00
ENDCHAR
STARTCHAR U+0010
ENCODING 16
SWIDTH 500 0
DWIDTH 8 0
BBX 8 16 0 -7
BITMAP
00
00
00
00
00
10
00
00
00
00
00
00
00
00
00
00
ENDCHAR
STARTCHAR U+0011
ENCODING 17
SWIDTH 500 0
DWIDTH 8 0
BBX 8 16 0 -7
BITMAP
00
00
00
00
00
10
00
00
00
00
00
00
00
00
00
00
ENDCHAR
STARTCHAR U+0012
ENCODING 18
SWIDTH 500 0
DWIDTH 8 0
BBX 8 16 0 -7
BITMAP
00
00
00
00
00
10
00
00
00
00
00
00
00
00
00
00
ENDCHAR
STARTCHAR U+0013
ENCODING 19
SWIDTH 500 0
DWIDTH 8 0
BBX 8 16 0 -7
BITMAP
00
00
00
00
00
10
00
00
00
00
00
00
00
00
00
00
ENDCHAR
STARTCHAR U+0014
ENCODING 20
SWIDTH 500 0
DWIDTH 8 0
BBX 8 16 0 -7
BITMAP
00
00
00
00
00
10
00
00
00
00
00
00
00
00
00
00
ENDCHAR
STARTCHAR U+0015
ENCODING 21
SWIDTH 500 0
DWIDTH 8 0
BBX 8 16 0 -7
BITMAP
00
00
00
00
00
10
00
00
00
00
00
00
00
00
00
00
ENDCHAR
STARTCHAR U+0016
ENCODING 22
SWIDTH 500 0
DWIDTH 8 0
BBX 8 16 0 -7
BITMAP
00
00
00
00
00
10
00
00
00
00
00
00
00
00
00
00
ENDCHAR
STARTCHAR U+0017
ENCODING 23
SWIDTH 500 0
DWIDTH 8 0
BBX 8 16 0 -7
BITMAP
00
00
00
00
00
10
00
00
00
00
00
00
00
00
00
00
ENDCHAR
STARTCHAR U+0018
ENCODING 24
SWIDTH 500 0
DWIDTH 8 0
BBX 8 16 0 -7
BITMAP
00
00
00
00
00
10
00
00
00
00
00
00
00
00
00
00
ENDCHAR
STARTCHAR U+0019
ENCODING 25
SWIDTH 500 0
DWIDTH 8 0
BBX 8 16 0 -7
BITMAP
00
00
00
00
00
10
00
00
00
00
00
00
00
00
00
00
ENDCHAR
STARTCHAR U+001a
ENCODING 26
SWIDTH 500 0
DWIDTH 8 0
BBX 8 16 0 -7
BITMAP
00
00
00
00
00
10
00
00
00
00
00
00
00
00
00
00
ENDCHAR
STARTCHAR U+001b
ENCODING 27
SWIDTH 500 0
DWIDTH 8 0
BBX 8 16 0 -7
BITMAP
00
00
00
00
00
10
00
00
00
00
00
00
00
00
00
00
ENDCHAR
STARTCHAR U+001c
ENCODING 28
SWIDTH 500 0
DWIDTH 8 0
BBX 8 16 0 -7
BITMAP
00
00
00
00
00
10
00
00
00
00
00
00
00
00
00
00
ENDCHAR
STARTCHAR U+001d
ENCODING 29
SWIDTH 500 0
DWIDTH 8 0
BBX 8 16 0 -7
BITMAP
00
00
00
00
00
10
00
00
00
00
00
00
00
00
00
00
ENDCHAR
STARTCHAR U+001e
ENCODING 30
SWIDTH 500 0
DWIDTH 8 0
BBX 8 16 0 -7
BITMAP
00
00
00
00
00
10
00
00
00
00
00
00
00
00
00
00
ENDCHAR
STARTCHAR U+001f
ENCODING 31
SWIDTH 500 0
DWIDTH 8 0
BBX 8 16 0 -7
BITMAP
00
00
00
00
00
10
00
00
00
00
00
00
00
00
00
00
ENDCHAR
STARTCHAR SPACE
ENCODING 32
SWIDTH 500 0
DWIDTH 8 0
BBX 8 16 0 -7
BITMAP
00
00
00
00
00
00
00
00
00
00
00
00
00
00
00
00
ENDCHAR
STARTCHAR EXCLAMATION MARK
ENCODING 33
SWIDTH 500 0
DWIDTH 8 0
BBX 8 16 0 -7
BITMAP
00
10
10
10
10
10
10
00
00
10
00
00
00
00
00
00
ENDCHAR
STARTCHAR QUOTATION MARK
ENCODING 34
SWIDTH 500 0
DWIDTH 8 0
BBX 8 16 0 -7
BITMAP
00
28
28
28
00
00
00
00
00
00
00
00
00
00
00
00
ENDCHAR
STARTCHAR NUMBER SIGN
ENCODING 35
SWIDTH 500 0
DWIDTH 8 0
BBX 8 16 0 -7
BITMAP
00
00
24
7e
24
24
24
7e
24
00
00
00
00
00
00
00
ENDCHAR
STARTCHAR DOLLAR SIGN
ENCODING 36
SWIDTH 500 0
DWIDTH 8 0
BBX 8 16 0 -7
BITMAP
00
00
5a
24
42
42
42
24
5a
00
00
00
00
00
00
00
ENDCHAR
STARTCHAR PERCENT SIGN
ENCODING 37
SWIDTH 500 0
DWIDTH 8 0
BBX 8 16 0 -7
BITMAP
00
20
50
24
08
10
20
48
14
08
00
00
00
00
00
00
ENDCHAR
STARTCHAR AMPERSAND
ENCODING 38
SWIDTH 500 0
DWIDTH 8 0
BBX 8 16 0 -7
BITMAP
00
30
48
48
30
30
4a
44
44
3a
00
00
00
00
00
00
ENDCHAR
STARTCHAR APOSTROPHE
ENCODING 39
SWIDTH 500 0
DWIDTH 8 0
BBX 8 16 0 -7
BITMAP
00
10
10
10
00
00
00
00
00
00
00
00
00
00
00
00
ENDCHAR
STARTCHAR LEFT PARENTHESIS
ENCODING 40
SWIDTH 500 0
DWIDTH 8 0
BBX 8 16 0 -7
BITMAP
00
08
10
20
20
20
20
20
10
08
00
00
00
00
00
00
ENDCHAR
STARTCHAR RIGHT PARENTHESIS
ENCODING 41
SWIDTH 500 0
DWIDTH 8 0
BBX 8 16 0 -7
BITMAP
00
20
10
08
08
08
08
08
10
20
00
00
00
00
00
00
ENDCHAR
STARTCHAR ASTERISK
ENCODING 42
SWIDTH 500 0
DWIDTH 8 0
BBX 8 16 0 -7
BITMAP
00
00
44
28
10
7c
10
28
44
00
00
00
00
00
00
00
ENDCHAR
STARTCHAR PLUS SIGN
ENCODING 43
SWIDTH 500 0
DWIDTH 8 0
BBX 8 16 0 -7
BITMAP
00
00
00
10
10
7c
10
10
00
00
00
00
00
00
00
00
ENDCHAR
STARTCHAR COMMA
ENCODING 44
SWIDTH 500 0
DWIDTH 8 0
BBX 8 16 0 -7
BITMAP
00
00
00
00
00
00
08
08
10
20
00
00
00
00
00
00
ENDCHAR
STARTCHAR HYPHEN-MINUS
ENCODING 45
SWIDTH 500 0
DWIDTH 8 0
BBX 8 16 0 -7
BITMAP
00
00
00
00
00
7c
00
00
00
00
00
00
00
00
00
00
ENDCHAR
STARTCHAR FULL STOP
ENCODING 46
SWIDTH 500 0
DWIDTH 8 0
BBX 8 16 0 -7
BITMAP
00
00
00
00
00
00
00
00
00
10
00
00
00
00
00
00
ENDCHAR
STARTCHAR SOLIDUS
ENCODING 47
SWIDTH 500 0
DWIDTH 8 0
BBX 8 16 0 -7
BITMAP
00
00
00
02
04
08
10
20
40
00
00
00
00
00
00
00
ENDCHAR
STARTCHAR DIGIT ZERO
ENCODING 48
SWIDTH 500 0
DWIDTH 8 0
BBX 8 16 0 -7
BITMAP
00
3c
42
46
4a
52
62
42
42
3c
00
00
00
00
00
00
ENDCHAR
STARTCHAR DIGIT ONE
ENCODING 49
SWIDTH 500 0
DWIDTH 8 0
BBX 8 16 0 -7
BITMAP
00
08
18
28
08
08
08
08
08
08
00
00
00
00
00
00
ENDCHAR
STARTCHAR DIGIT TWO
ENCODING 50
SWIDTH 500 0
DWIDTH 8 0
BBX 8 16 0 -7
BITMAP
00
3c
42
02
04
08
10
20
40
7e
00
00
00
00
00
00
ENDCHAR
STARTCHAR DIGIT THREE
ENCODING 51
SWIDTH 500 0
DWIDTH 8 0
BBX 8 16 0 -7
BITMAP
00
3e
04
08
18
04
02
02
44
38
00
00
00
00
00
00
ENDCHAR
STARTCHAR DIGIT FOUR
ENCODING 52
SWIDTH 500 0
DWIDTH 8 0
BBX 8 16 0 -7
BITMAP
00
04
0c
14
24
44
7e
04
04
04
00
00
00
00
00
00
ENDCHAR
STARTCHAR DIGIT FIVE
ENCODING 53
SWIDTH 500 0
DWIDTH 8 0
BBX 8 16 0 -7
BITMAP
00
7e
40
40
78
04
02
02
04
78
00
00
00
00
00
00
ENDCHAR
STARTCHAR DIGIT SIX
ENCODING 54
SWIDTH 500 0
DWIDTH 8 0
BBX 8 16 0 -7
BITMAP
00
1c
22
40
40
7c
42
42
42
3c
00
00
00
00
00
00
ENDCHAR
STARTCHAR DIGIT SEVEN
ENCODING 55
SWIDTH 500 0
DWIDTH 8 0
BBX 8 16 0 -7
BITMAP
00
7e
02
04
08
10
10
10
10
10
00
00
00
00
00
00
ENDCHAR
STARTCHAR DIGIT EIGHT
ENCODING 56
SWIDTH 500 0
DWIDTH 8 0
BBX 8 16 0 -7
BITMAP
00
38
44
44
38
44
44
44
44
38
00
00
00
00
00
00
ENDCHAR
STARTCHAR DIGIT NINE
ENCODING 57
SWIDTH 500 0
DWIDTH 8 0
BBX 8 16 0 -7
BITMAP
00
3c
42
42
42
3e
02
02
44
38
00
00
00
00
00
00
ENDCHAR
STARTCHAR COLON
ENCODING 58
SWIDTH 500 0
DWIDTH 8 0
BBX 8 16 0 -7
BITMAP
00
00
00
00
00
00
10
00
00
10
00
00
00
00
00
00
ENDCHAR
STARTCHAR SEMICOLON
ENCODING 59
SWIDTH 500 0
DWIDTH 8 0
BBX 8 16 0 -7
BITMAP
00
00
00
00
10
00
00
10
10
20
00
00
00
00
00
00
ENDCHAR
STARTCHAR LESS-THAN SIGN
ENCODING 60
SWIDTH 500 0
DWIDTH 8 0
BBX 8 16 0 -7
BITMAP
00
04
08
10
20
40
20
10
08
04
00
00
00
00
00
00
ENDCHAR
STARTCHAR EQUALS SIGN
ENCODING 61
SWIDTH 500 0
DWIDTH 8 0
BBX 8 16 0 -7
BITMAP
00
00
00
00
7e
00
00
7e
00
00
00
00
00
00
00
00
ENDCHAR
STARTCHAR GREATER-THAN SIGN
ENCODING 62
SWIDTH 500 0
DWIDTH 8 0
BBX 8 16 0 -7
BITMAP
00
40
20
10
08
04
08
10
20
40
00
00
00
00
00
00
ENDCHAR
STARTCHAR QUESTION MARK
ENCODING 63
SWIDTH 500 0
DWIDTH 8 0
BBX 8 16 0 -7
BITMAP
00
3c
42
42
04
08
10
10
00
10
00
00
00
00
00
00
ENDCHAR
STARTCHAR COMMERCIAL AT
ENCODING 64
SWIDTH 500 0
DWIDTH 8 0
BBX 8 16 0 -7
BITMAP
00
1c
22
4e
52
52
5e
40
42
3c
00
00
00
00
00
00
ENDCHAR
STARTCHAR LATIN CAPITAL LETTER A
ENCODING 65
SWIDTH 500 0
DWIDTH 8 0
BBX 8 16 0 -7
BITMAP
00
18
24
42
42
42
7e
42
42
42
00
00
00
00
00
00
ENDCHAR
STARTCHAR LATIN CAPITAL LETTER B
ENCODING 66
SWIDTH 500 0
DWIDTH 8 0
BBX 8 16 0 -7
BITMAP
00
78
44
42
44
78
44
42
44
78
00
00
00
00
00
00
ENDCHAR
STARTCHAR LATIN CAPITAL LETTER C
ENCODING 67
SWIDTH 500 0
DWIDTH 8 0
BBX 8 16 0 -7
BITMAP
00
1c
22
40
40
40
40
40
22
1c
00
00
00
00
00
00
ENDCHAR
STARTCHAR LATIN CAPITAL LETTER D
ENCODING 68
SWIDTH 500 0
DWIDTH 8 0
BBX 8 16 0 -7
BITMAP
00
78
44
42
42
42
42
42
44
78
00
00
00
00
00
00
ENDCHAR
STARTCHAR LATIN CAPITAL LETTER E
ENCODING 69
SWIDTH 500 0
DWIDTH 8 0
BBX 8 16 0 -7
BITMAP
00
7e
40
40
40
78
40
40
40
7e
00
00
00
00
00
00
ENDCHAR
STARTCHAR LATIN CAPITAL LETTER F
ENCODING 70
SWIDTH 500 0
DWIDTH 8 0
BBX 8 16 0 -7
BITMAP
00
7e
40
40
40
78
40
40
40
40
00
00
00
00
00
00
ENDCHAR
STARTCHAR LATIN CAPITAL LETTER G
ENCODING 71
SWIDTH 500 0
DWIDTH 8 0
BBX 8 16 0 -7
BITMAP
00
38
44
40
40
40
4e
44
44
3c
00
00
00
00
00
00
ENDCHAR
STARTCHAR LATIN CAPITAL LETTER H
ENCODING 72
SWIDTH 500 0
DWIDTH 8 0
BBX 8 16 0 -7
BITMAP
00
42
42
42
42
7e
42
42
42
42
00
00
00
00
00
00
ENDCHAR
STARTCHAR LATIN CAPITAL LETTER I
ENCODING 73
SWIDTH 500 0
DWIDTH 8 0
BBX 8 16 0 -7
BITMAP
00
38
10
10
10
10
10
10
10
38
00
00
00
00
00
00
ENDCHAR
STARTCHAR LATIN CAPITAL LETTER J
ENCODING 74
SWIDTH 500 0
DWIDTH 8 0
BBX 8 16 0 -7
BITMAP
00
1c
08
08
08
08
08
08
48
30
00
00
00
00
00
00
ENDCHAR
STARTCHAR LATIN CAPITAL LETTER K
ENCODING 75
SWIDTH 500 0
DWIDTH 8 0
BBX 8 16 0 -7
BITMAP
00
42
44
48
50
60
50
48
44
42
00
00
00
00
00
00
ENDCHAR
STARTCHAR LATIN CAPITAL LETTER L
ENCODING 76
SWIDTH 500 0
DWIDTH 8 0
BBX 8 16 0 -7
BITMAP
00
40
40
40
40
40
40
40
40
7e
00
00
00
00
00
00
ENDCHAR
STARTCHAR LATIN CAPITAL LETTER M
ENCODING 77
SWIDTH 500 0
DWIDTH 8 0
BBX 8 16 0 -7
BITMAP
00
42
66
5a
5a
42
42
42
42
42
00
00
00
00
00
00
ENDCHAR
STARTCHAR LATIN CAPITAL LETTER N
ENCODING 78
SWIDTH 500 0
DWIDTH 8 0
BBX 8 16 0 -7
BITMAP
00
42
42
42
62
52
4a
46
42
42
00
00
00
00
00
00
ENDCHAR
STARTCHAR LATIN CAPITAL LETTER O
ENCODING 79
SWIDTH 500 0
DWIDTH 8 0
BBX 8 16 0 -7
BITMAP
00
3c
42
42
42
42
42
42
42
3c
00
00
00
00
00
00
ENDCHAR
STARTCHAR LATIN CAPITAL LETTER P
ENCODING 80
SWIDTH 500 0
DWIDTH 8 0
BBX 8 16 0 -7
BITMAP
00
7c
42
42
42
7c
40
40
40
40
00
00
00
00
00
00
ENDCHAR
STARTCHAR LATIN CAPITAL LETTER Q
ENCODING 81
SWIDTH 500 0
DWIDTH 8 0
BBX 8 16 0 -7
BITMAP
00
18
24
42
42
42
42
4a
24
1a
00
00
00
00
00
00
ENDCHAR
STARTCHAR LATIN CAPITAL LETTER R
ENCODING 82
SWIDTH 500 0
DWIDTH 8 0
BBX 8 16 0 -7
BITMAP
00
7c
42
42
42
7c
50
48
44
42
00
00
00
00
00
00
ENDCHAR
STARTCHAR LATIN CAPITAL LETTER S
ENCODING 83
SWIDTH 500 0
DWIDTH 8 0
BBX 8 16 0 -7
BITMAP
00
3c
42
40
40
3c
02
02
42
3c
00
00
00
00
00
00
ENDCHAR
STARTCHAR LATIN CAPITAL LETTER T
ENCODING 84
SWIDTH 500 0
DWIDTH 8 0
BBX 8 16 0 -7
BITMAP
00
7c
10
10
10
10
10
10
10
10
00
00
00
00
00
00
ENDCHAR
STARTCHAR LATIN CAPITAL LETTER U
ENCODING 85
SWIDTH 500 0
DWIDTH 8 0
BBX 8 16 0 -7
BITMAP
00
42
42
42
42
42
42
42
42
3c
00
00
00
00
00
00
ENDCHAR
STARTCHAR LATIN CAPITAL LETTER V
ENCODING 86
SWIDTH 500 0
DWIDTH 8 0
BBX 8 16 0 -7
BITMAP
00
42
42
42
42
42
42
24
24
18
00
00
00
00
00
00
ENDCHAR
STARTCHAR LATIN CAPITAL LETTER W
ENCODING 87
SWIDTH 500 0
DWIDTH 8 0
BBX 8 16 0 -7
BITMAP
00
42
42
42
42
42
42
5a
5a
24
00
00
00
00
00
00
ENDCHAR
STARTCHAR LATIN CAPITAL LETTER X
ENCODING 88
SWIDTH 500 0
DWIDTH 8 0
BBX 8 16 0 -7
BITMAP
00
42
42
24
18
18
18
24
42
42
00
00
00
00
00
00
ENDCHAR
STARTCHAR LATIN CAPITAL LETTER Y
ENCODING 89
SWIDTH 500 0
DWIDTH 8 0
BBX 8 16 0 -7
BITMAP
00
44
44
28
28
10
10
10
10
10
00
00
00
00
00
00
ENDCHAR
STARTCHAR LATIN CAPITAL LETTER Z
ENCODING 90
SWIDTH 500 0
DWIDTH 8 0
BBX 8 16 0 -7
BITMAP
00
7e
02
04
08
10
20
40
40
7e
00
00
00
00
00
00
ENDCHAR
STARTCHAR LEFT SQUARE BRACKET
ENCODING 91
SWIDTH 500 0
DWIDTH 8 0
BBX 8 16 0 -7
BITMAP
00
3c
20
20
20
20
20
20
20
3c
00
00
00
00
00
00
ENDCHAR
STARTCHAR REVERSE SOLIDUS
ENCODING 92
SWIDTH 500 0
DWIDTH 8 0
BBX 8 16 0 -7
BITMAP
00
00
00
40
20
10
08
04
02
00
00
00
00
00
00
00
ENDCHAR
STARTCHAR RIGHT SQUARE BRACKET
ENCODING 93
SWIDTH 500 0
DWIDTH 8 0
BBX 8 16 0 -7
BITMAP
00
3c
04
04
04
04
04
04
04
3c
00
00
00
00
00
00
ENDCHAR
STARTCHAR CIRCUMFLEX ACCENT
ENCODING 94
SWIDTH 500 0
DWIDTH 8 0
BBX 8 16 0 -7
BITMAP
00
00
00
10
28
44
00
00
00
00
00
00
00
00
00
00
ENDCHAR
STARTCHAR LOW LINE
ENCODING 95
SWIDTH 500 0
DWIDTH 8 0
BBX 8 16 0 -7
BITMAP
00
00
00
00
00
00
00
00
00
00
7e
00
00
00
00
00
ENDCHAR
STARTCHAR GRAVE ACCENT
ENCODING 96
SWIDTH 500 0
DWIDTH 8 0
BBX 8 16 0 -7
BITMAP
00
10
08
00
00
00
00
00
00
00
00
00
00
00
00
00
ENDCHAR
STARTCHAR LATIN SMALL LETTER A
ENCODING 97
SWIDTH 500 0
DWIDTH 8 0
BBX 8 16 0 -7
BITMAP
00
00
00
00
3c
02
3e
46
46
3a
00
00
00
00
00
00
ENDCHAR
STARTCHAR LATIN SMALL LETTER B
ENCODING 98
SWIDTH 500 0
DWIDTH 8 0
BBX 8 16 0 -7
BITMAP
00
40
40
40
5c
62
42
42
62
5c
00
00
00
00
00
00
ENDCHAR
STARTCHAR LATIN SMALL LETTER C
ENCODING 99
SWIDTH 500 0
DWIDTH 8 0
BBX 8 16 0 -7
BITMAP
00
00
00
00
3c
42
40
40
42
3c
00
00
00
00
00
00
ENDCHAR
STARTCHAR LATIN SMALL LETTER D
ENCODING 100
SWIDTH 500 0
DWIDTH 8 0
BBX 8 16 0 -7
BITMAP
00
02
02
02
3a
46
42
42
46
3a
00
00
00
00
00
00
ENDCHAR
STARTCHAR LATIN SMALL LETTER E
ENCODING 101
SWIDTH 500 0
DWIDTH 8 0
BBX 8 16 0 -7
BITMAP
00
00
00
00
3c
42
7e
40
42
3c
00
00
00
00
00
00
ENDCHAR
STARTCHAR LATIN SMALL LETTER F
ENCODING 102
SWIDTH 500 0
DWIDTH 8 0
BBX 8 16 0 -7
BITMAP
00
0c
10
10
3c
10
10
10
10
10
00
00
00
00
00
00
ENDCHAR
STARTCHAR LATIN SMALL LETTER G
ENCODING 103
SWIDTH 500 0
DWIDTH 8 0
BBX 8 16 0 -7
BITMAP
00
00
00
00
3a
46
42
46
3a
02
3c
00
00
00
00
00
ENDCHAR
STARTCHAR LATIN SMALL LETTER H
ENCODING 104
SWIDTH 500 0
DWIDTH 8 0
BBX 8 16 0 -7
BITMAP
00
40
40
40
5c
62
42
42
42
42
00
00
00
00
00
00
ENDCHAR
STARTCHAR LATIN SMALL LETTER I
ENCODING 105
SWIDTH 500 0
DWIDTH 8 0
BBX 8 16 0 -7
BITMAP
00
08
00
00
18
08
08
08
08
1c
00
00
00
00
00
00
ENDCHAR
STARTCHAR LATIN SMALL LETTER J
ENCODING 106
SWIDTH 500 0
DWIDTH 8 0
BBX 8 16 0 -7
BITMAP
00
08
00
00
38
08
08
08
08
08
30
00
00
00
00
00
ENDCHAR
STARTCHAR LATIN SMALL LETTER K
ENCODING 107
SWIDTH 500 0
DWIDTH 8 0
BBX 8 16 0 -7
BITMAP
00
40
40
40
44
48
70
50
48
44
00
00
00
00
00
00
ENDCHAR
STARTCHAR LATIN SMALL LETTER L
ENCODING 108
SWIDTH 500 0
DWIDTH 8 0
BBX 8 16 0 -7
BITMAP
00
10
10
10
10
10
10
10
12
0c
00
00
00
00
00
00
ENDCHAR
STARTCHAR LATIN SMALL LETTER M
ENCODING 109
SWIDTH 500 0
DWIDTH 8 0
BBX 8 16 0 -7
BITMAP
00
00
00
00
78
54
54
54
54
54
00
00
00
00
00
00
ENDCHAR
STARTCHAR LATIN SMALL LETTER N
ENCODING 110
SWIDTH 500 0
DWIDTH 8 0
BBX 8 16 0 -7
BITMAP
00
00
00
00
5c
62
42
42
42
42
00
00
00
00
00
00
ENDCHAR
STARTCHAR LATIN SMALL LETTER O
ENCODING 111
SWIDTH 500 0
DWIDTH 8 0
BBX 8 16 0 -7
BITMAP
00
00
00
00
3c
42
42
42
42
3c
00
00
00
00
00
00
ENDCHAR
STARTCHAR LATIN SMALL LETTER P
ENCODING 112
SWIDTH 500 0
DWIDTH 8 0
BBX 8 16 0 -7
BITMAP
00
00
00
00
5c
62
42
62
5c
40
40
00
00
00
00
00
ENDCHAR
STARTCHAR LATIN SMALL LETTER Q
ENCODING 113
SWIDTH 500 0
DWIDTH 8 0
BBX 8 16 0 -7
BITMAP
00
00
00
00
3a
46
42
46
3a
02
02
00
00
00
00
00
ENDCHAR
STARTCHAR LATIN SMALL LETTER R
ENCODING 114
SWIDTH 500 0
DWIDTH 8 0
BBX 8 16 0 -7
BITMAP
00
00
00
00
2c
32
20
20
20
20
00
00
00
00
00
00
ENDCHAR
STARTCHAR LATIN SMALL LETTER S
ENCODING 115
SWIDTH 500 0
DWIDTH 8 0
BBX 8 16 0 -7
BITMAP
00
00
00
00
3c
40
3c
02
42
3c
00
00
00
00
00
00
ENDCHAR
STARTCHAR LATIN SMALL LETTER T
ENCODING 116
SWIDTH 500 0
DWIDTH 8 0
BBX 8 16 0 -7
BITMAP
00
10
10
10
3c
10
10
10
10
0c
00
00
00
00
00
00
ENDCHAR
STARTCHAR LATIN SMALL LETTER U
ENCODING 117
SWIDTH 500 0
DWIDTH 8 0
BBX 8 16 0 -7
BITMAP
00
00
00
00
42
42
42
42
46
3a
00
00
00
00
00
00
ENDCHAR
STARTCHAR LATIN SMALL LETTER V
ENCODING 118
SWIDTH 500 0
DWIDTH 8 0
BBX 8 16 0 -7
BITMAP
00
00
00
00
44
44
44
44
28
10
00
00
00
00
00
00
ENDCHAR
STARTCHAR LATIN SMALL LETTER W
ENCODING 119
SWIDTH 500 0
DWIDTH 8 0
BBX 8 16 0 -7
BITMAP
00
00
00
00
42
42
42
5a
5a
24
00
00
00
00
00
00
ENDCHAR
STARTCHAR LATIN SMALL LETTER X
ENCODING 120
SWIDTH 500 0
DWIDTH 8 0
BBX 8 16 0 -7
BITMAP
00
00
00
00
42
24
18
18
24
42
00
00
00
00
00
00
ENDCHAR
STARTCHAR LATIN SMALL LETTER Y
ENCODING 121
SWIDTH 500 0
DWIDTH 8 0
BBX 8 16 0 -7
BITMAP
00
00
00
00
42
42
22
14
08
10
60
00
00
00
00
00
ENDCHAR
STARTCHAR LATIN SMALL LETTER Z
ENCODING 122
SWIDTH 500 0
DWIDTH 8 0
BBX 8 16 0 -7
BITMAP
00
00
00
00
7e
04
08
10
20
7e
00
00
00
00
00
00
ENDCHAR
STARTCHAR LEFT CURLY BRACKET
ENCODING 123
SWIDTH 500 0
DWIDTH 8 0
BBX 8 16 0 -7
BITMAP
00
0c
10
10
10
20
10
10
10
0c
00
00
00
00
00
00
ENDCHAR
STARTCHAR VERTICAL LINE
ENCODING 124
SWIDTH 500 0
DWIDTH 8 0
BBX 8 16 0 -7
BITMAP
00
10
10
10
10
10
10
10
10
10
00
00
00
00
00
00
ENDCHAR
STARTCHAR RIGHT CURLY BRACKET
ENCODING 125
SWIDTH 500 0
DWIDTH 8 0
BBX 8 16 0 -7
BITMAP
00
60
10
10
10
08
10
10
10
60
00
00
00
00
00
00
ENDCHAR
STARTCHAR TILDE
ENCODING 126
SWIDTH 500 0
DWIDTH 8 0
BBX 8 16 0 -7
BITMAP
00
7e
00
00
00
00
00
00
00
00
00
00
00
00
00
00
ENDCHAR
STARTCHAR U+007f
ENCODING 127
SWIDTH 500 0
DWIDTH 8 0
BBX 8 16 0 -7
BITMAP
fe
fe
fe
fe
fe
fe
fe
fe
fe
fe
fe
fe
00
00
00
00
ENDCHAR
ENDFONT
